HIERARCHY
ROOT Hip
{
	OFFSET	0.00  0.00  0.00 
	CHANNELS 6 Xposition Yposition Zposition Xrotation Zrotation Yrotation
	JOINT Abdomen
	{
		OFFSET	0.000000 0.000000 0.000000
		CHANNELS 3 Xrotation Zrotation Yrotation
		JOINT Chest
		{
			OFFSET	0.000000 5.018152 -1.882229
			CHANNELS 3 Xrotation Zrotation Yrotation
			JOINT neckDummy
			{
				OFFSET	0.000000 8.316447 0.784897
				CHANNELS 3 Xrotation Yrotation Zrotation
				JOINT Neck
				{
					OFFSET	0.000000 2.280413 -0.392801
					CHANNELS 3 Xrotation Zrotation Yrotation
					JOINT Head
					{
						OFFSET	0.000000 3.496879 0.529469
						CHANNELS 3 Xrotation Zrotation Yrotation
						End Site
						{
							OFFSET 0.000000 10.353750 0.000000
						}
					}
				}
			}
			JOINT Left Collar
			{
				OFFSET	0.599237 8.316447 0.784897
				CHANNELS 3 Yrotation Zrotation Xrotation
				JOINT Left Shoulder
				{
					OFFSET	6.421198 0.010146 -0.332128
					CHANNELS 3 Zrotation Yrotation Xrotation
					JOINT Left Forearm
					{
						OFFSET	10.552783 0.025574 0.125508
						CHANNELS 3 Yrotation Zrotation Xrotation
						JOINT Left Hand
						{
							OFFSET	11.035963 0.319619 0.041520
							CHANNELS 3 Zrotation Yrotation Xrotation
							End Site
							{
								OFFSET 10.353753 0.000000 0.000000
							}
						}
					}
				}
			}
			JOINT Right Collar
			{
				OFFSET	-0.599237 8.316447 0.784897
				CHANNELS 3 Yrotation Zrotation Xrotation
				JOINT Right Shoulder
				{
					OFFSET	-6.421198 0.010146 -0.332128
					CHANNELS 3 Zrotation Yrotation Xrotation
					JOINT Right Forearm
					{
						OFFSET	-10.552783 0.025574 0.125508
						CHANNELS 3 Yrotation Zrotation Xrotation
						JOINT Right Hand
						{
							OFFSET	-11.035963 0.319619 0.041520
							CHANNELS 3 Zrotation Yrotation Xrotation
							End Site
							{
								OFFSET -10.353753 0.000000 0.000000
							}
						}
					}
				}
			}
		}
	}
	JOINT Left Thigh
	{
		OFFSET	4.500466 -6.400484 -1.832696
		CHANNELS 3 Xrotation Zrotation Yrotation
		JOINT Left Shin
		{
			OFFSET	-1.359117 -18.918689 1.179887
			CHANNELS 3 Xrotation Zrotation Yrotation
			JOINT Left Foot
			{
				OFFSET	-0.652380 -17.215187 -0.312137
				CHANNELS 3 Xrotation Yrotation Zrotation
				End Site
				{
					OFFSET 0.000000 0.000000 10.353752
				}
			}
		}
	}
	JOINT Right Thigh
	{
		OFFSET	-4.500466 -6.400484 -1.832696
		CHANNELS 3 Xrotation Zrotation Yrotation
		JOINT Right Shin
		{
			OFFSET	1.359117 -18.918689 1.179887
			CHANNELS 3 Xrotation Zrotation Yrotation
			JOINT Right Foot
			{
				OFFSET	0.652380 -17.215187 -0.312137
				CHANNELS 3 Xrotation Yrotation Zrotation
				End Site
				{
					OFFSET 0.000000 0.000000 10.353752
				}
			}
		}
	}
}
MOTION
Frames:     11
Frame Time: 0.041667
0.000000 31.366284 -1.621306 11.471100 1.750470 5.452010 14.856100 -2.109950 0.849158 9.790630 -2.005910 1.416630 0.000000 0.000000 0.000000 6.100580 -0.429584 3.039500 -18.148500 2.236870 -5.453260 0.000000 0.000000 0.000000 -80.590408 -40.890598 -1.927011 -125.064819 -13.501184 7.251766 -27.846455 4.117475 -3.827150 0.000000 0.000000 0.000000 57.846359 44.905506 -45.772003 124.106323 29.240767 -15.847219 0.000829 0.002194 0.879440 -46.624126 24.357895 2.183009 81.482178 -5.775914 -7.769943 -39.757267 11.557349 -14.972607 -81.786301 -31.767984 1.710910 69.280067 5.623649 6.697715 1.381139 1.353386 0.861967 
1.338325 30.858113 -2.877177 11.416348 -4.283212 6.926490 14.684070 5.027713 2.539623 7.733830 4.434758 -0.281513 0.000000 0.000000 0.000000 3.252657 -0.334991 0.939336 -23.599720 4.588049 -8.916953 0.023431 0.069302 0.006815 -82.071899 -46.217220 -1.808882 -127.259590 -13.487746 6.085086 -17.910713 -11.334744 -16.868891 0.024503 0.068127 -0.002839 60.290989 45.235008 -39.954990 124.670311 28.415319 -16.409323 -0.000984 0.002817 1.054682 -54.751152 27.558504 -3.657080 86.245461 -6.142753 -8.829145 -40.164482 9.764271 -12.771122 -81.036140 -27.724585 -1.254491 75.787186 6.596531 8.268056 9.831947 0.484796 1.540073 
2.598792 30.697296 -3.956999 11.190418 -9.814303 8.539008 14.415695 11.285357 3.877296 5.938860 10.050568 -1.705928 0.000000 0.000000 0.000000 1.246484 -0.273579 -1.112177 -28.217287 6.561741 -11.820371 0.036371 0.124152 0.015280 -82.080963 -48.157352 -2.884246 -129.200058 -12.959743 5.390946 -10.600143 -23.513912 -28.215319 0.038997 0.121147 -0.004286 62.750465 45.334785 -34.381248 124.814262 27.532198 -16.469547 -0.001215 0.002952 1.054682 -61.519768 29.468294 -7.537153 88.888481 -5.888010 -9.207027 -39.732738 7.098004 -10.427418 -81.757645 -24.270630 -3.773653 82.305550 7.389409 10.283368 16.142580 -0.992816 4.710206 
3.738094 30.971967 -4.865393 11.166866 -14.894549 10.289948 14.002960 16.717836 4.811306 4.380773 14.852874 -2.811083 0.000000 0.000000 0.000000 -0.018453 -0.229752 -3.174651 -32.045292 8.225279 -14.192100 0.035995 0.160830 0.018308 -80.426247 -47.386658 -5.478886 -131.148743 -12.609489 5.088423 -6.243532 -32.340462 -37.082336 0.039058 0.157456 -0.005962 65.178825 45.239697 -28.782557 125.226219 26.842407 -16.963432 0.159697 0.073462 1.230618 -67.257919 30.918268 -10.962541 89.594681 -6.155078 -9.579309 -38.471138 4.281265 -7.833095 -83.845299 -21.360052 -6.053065 88.508270 7.877510 11.685487 21.194048 -1.845229 8.782620 
4.705833 31.795757 -5.596940 11.731100 -19.549299 12.187800 13.389400 21.331699 5.267150 3.048490 18.805401 -3.532750 0.000000 0.000000 0.000000 -0.599272 -0.188942 -5.308340 -35.081600 9.627840 -16.029600 0.018697 0.174553 0.008492 -77.124680 -43.550079 -10.069397 -132.941727 -12.211623 4.129467 -6.351584 -36.649933 -42.883907 0.019417 0.174475 -0.009500 67.418770 45.365719 -22.422434 125.825089 26.156851 -17.062769 0.157628 0.077806 1.054848 -71.002319 31.065882 -12.438022 86.752884 -5.710871 -9.212964 -35.825218 1.703709 -5.600290 -87.282906 -19.306459 -7.546197 96.510262 8.621235 13.847842 23.399294 -2.806590 12.536209 
5.478797 33.227242 -6.143052 13.032751 -23.770538 14.241014 12.548676 25.097609 5.201877 1.947049 21.863503 -3.835010 0.000000 0.000000 0.000000 -0.488478 -0.146463 -7.535842 -37.295052 10.775591 -17.311481 -0.017362 0.162862 -0.017104 -72.672379 -36.450748 -15.858209 -134.529175 -11.860311 3.656650 -10.692409 -37.217094 -46.215733 -0.022422 0.170611 -0.015510 69.929062 45.834557 -15.437397 126.092194 25.622890 -17.493292 0.156710 0.079649 1.054852 -72.951637 30.899872 -13.489971 81.104645 -5.780010 -8.409760 -32.336975 -0.726669 -4.775195 -90.819328 -17.797037 -8.563207 105.833588 9.339371 15.680298 22.518068 -2.743763 14.616002 
6.171742 35.010732 -6.513096 14.180725 -27.490967 16.432468 11.609199 27.984913 4.780921 1.106607 24.096172 -3.861011 0.000000 0.000000 0.000000 0.460430 -0.136471 -9.717457 -38.675816 11.548540 -18.033689 -0.064060 0.136523 -0.041383 -71.110573 -25.938890 -19.001074 -135.958237 -11.688657 3.207279 -17.568357 -34.280277 -47.684525 -0.074492 0.151542 -0.020204 71.935005 45.911194 -8.756653 126.390190 25.298622 -17.630493 0.000618 0.001894 0.703659 -73.231491 30.396330 -12.987252 73.528145 -5.227389 -6.954317 -28.489969 -3.184078 -3.794374 -93.984123 -16.192886 -9.055182 113.289024 10.248554 17.084246 19.510397 -2.716750 16.634426 
6.931973 36.823946 -6.713317 14.004739 -30.605503 18.744501 10.735484 29.923573 4.208440 0.575494 25.565454 -3.788487 0.000000 0.000000 0.000000 2.467584 -0.204727 -11.668971 -39.182636 11.777023 -18.171825 -0.111139 0.109109 -0.041950 -71.991280 -14.888031 -18.942190 -137.135529 -11.034324 2.963725 -24.461006 -29.099163 -46.979950 -0.121500 0.124174 -0.018579 73.377716 45.088737 -4.376544 126.449409 24.761278 -17.646284 0.167058 -0.054692 0.351482 -70.989120 30.228098 -12.043442 65.419189 -5.028735 -5.859220 -24.426235 -5.304474 -2.890207 -99.570580 -15.897190 -9.288550 119.210884 10.107061 18.511713 15.283508 -4.135932 19.540195 
7.910733 38.346339 -6.740015 11.257000 -32.973598 21.166500 10.095900 30.788000 3.679720 0.420152 26.288700 -3.789400 0.000000 0.000000 0.000000 5.815070 -0.401575 -13.192700 -38.723099 11.259500 -17.667299 -0.148364 0.094134 0.004982 -73.627899 -6.317495 -16.442278 -138.383606 -10.864465 2.446298 -28.953688 -22.476313 -44.967590 -0.147855 0.094929 -0.005266 73.696419 42.080856 -3.910936 126.750023 24.429485 -17.928173 0.106016 -0.140213 -0.000130 -65.904022 31.288059 -10.790272 58.912567 -4.806361 -4.684348 -23.076487 -7.691257 -2.620204 -108.150436 -18.406590 -9.952523 119.710823 7.403383 18.789854 12.499794 -7.602712 24.579449 
9.193460 39.318076 -6.601777 5.121502 -34.421360 23.643866 9.822701 30.438520 3.335100 0.697599 26.241879 -3.982641 0.000000 0.000000 0.000000 10.613212 -0.708923 -14.143212 -37.246986 9.864593 -16.494556 -0.167886 0.100520 0.114467 -75.032921 -3.156726 -11.851941 -139.612518 -10.688289 2.612984 -29.044123 -15.725281 -42.317616 -0.142125 0.069000 0.023412 72.533943 36.506149 -9.320684 126.950989 24.387318 -18.365440 0.309425 -0.166891 -0.000451 -58.322090 34.263519 -9.818322 55.218216 -4.470872 -4.316251 -23.378500 -9.002821 -2.190243 -117.627098 -22.077038 -7.230182 111.933342 3.904765 16.522743 11.730806 -10.460704 32.363342 
10.568057 39.758935 -6.387581 -3.079854 -34.762566 25.922918 9.869736 28.860153 3.094985 1.364121 25.365086 -4.268195 0.000000 0.000000 0.000000 16.053391 -0.810401 -14.651616 -35.040882 7.866252 -14.872393 -0.172713 0.117108 0.259055 -75.665474 -3.674267 -5.753823 -140.524033 -10.696886 2.143700 -25.823811 -8.474770 -38.495586 -0.112539 0.047303 0.062492 70.394981 28.909746 -18.224911 127.060463 24.065010 -18.350164 0.343392 -0.075353 -0.000226 -48.959167 37.923019 -8.229125 53.825989 -4.113234 -4.008786 -25.275433 -9.509060 -2.113832 -116.420631 -23.230598 -4.073681 91.856476 2.252990 11.616820 10.956563 -12.480768 40.767067 
